<?xml version="1.0" encoding="UTF-8"?>
<!DOCTYPE svg PUBLIC "-//W3C//DTD SVG 1.1//EN" "http://www.w3.org/Graphics/SVG/1.1/DTD/svg11.dtd">
<!-- Creator: CorelDRAW X7 -->
<svg xmlns="http://www.w3.org/2000/svg" xml:space="preserve" width="169.753mm" height="166.921mm" version="1.1" style="shape-rendering:geometricPrecision; text-rendering:geometricPrecision; image-rendering:optimizeQuality; fill-rule:evenodd; clip-rule:evenodd"
viewBox="0 0 16975 16692"
 xmlns:xlink="http://www.w3.org/1999/xlink">
 <defs>
  <style type="text/css">
   <![CDATA[
    .str0 {stroke:#2B2A29;stroke-width:5.29}
    .str4 {stroke:#FEFEFE;stroke-width:20}
    .str2 {stroke:#EF7F1A;stroke-width:7.62}
    .str3 {stroke:#AE4A84;stroke-width:7.62}
    .str1 {stroke:#009846;stroke-width:7.62}
    .fil1 {fill:#FEFEFE}
    .fil2 {fill:#2B2A29}
    .fil4 {fill:#EF7F1A}
    .fil5 {fill:#AE4A84}
    .fil3 {fill:#009846}
    .fil6 {fill:#007AC1}
    .fil7 {fill:#FEFEFE;fill-rule:nonzero}
    .fil0 {fill:#2B2A29;fill-rule:nonzero}
    .fil8 {fill:#007AC1;fill-rule:nonzero}
   ]]>
  </style>
 </defs>
 <g id="Layer_x0020_1">
  <metadata id="CorelCorpID_0Corel-Layer"/>
  <g id="_2627230150592">
   <g>
    <path class="fil0" d="M16975 8346l-686 0 0 0 -10 -394 -30 -389 -50 -383 -68 -376 -87 -370 -105 -364 -122 -355 -140 -347 -156 -339 -172 -330 -188 -321 -202 -311 -218 -300 -231 -289 -245 -278 -258 -267 -271 -253 -283 -241 -295 -228 -306 -214 -317 -199 -326 -185 -337 -169 -345 -153 -355 -138 -362 -120 -371 -104 -377 -85 -385 -68 -391 -48 -396 -30 -402 -10 0 -688 436 11 430 32 425 53 417 73 411 93 403 113 394 131 385 149 376 167 366 184 355 201 345 217 332 232 321 248 308 262 295 276 281 290 267 302 252 316 237 327 221 338 204 350 188 360 170 370 152 379 134 388 115 397 95 404 74 411 54 418 33 425 11 429 0 0zm-8487 8346l0 -688 0 0 402 -10 396 -30 391 -48 385 -68 377 -85 371 -104 362 -120 355 -138 345 -153 337 -169 326 -185 317 -199 306 -214 295 -228 283 -241 271 -253 258 -267 245 -278 231 -289 218 -300 202 -311 188 -320 172 -331 156 -338 140 -348 122 -355 105 -363 87 -371 68 -376 50 -383 30 -389 10 -394 686 0 -11 430 -33 424 -54 418 -74 411 -95 404 -115 397 -134 388 -152 379 -170 370 -188 360 -204 350 -221 338 -237 327 -252 316 -267 302 -281 290 -295 276 -308 262 -321 248 -332 232 -345 217 -355 201 -366 184 -376 167 -385 149 -394 131 -403 113 -411 93 -417 73 -425 53 -430 32 -436 11 0 0zm-8488 -8346l686 0 0 0 10 394 30 389 50 383 68 376 87 371 105 363 123 355 139 348 156 338 172 331 188 320 203 311 217 300 231 289 246 278 258 267 271 253 283 241 294 228 306 214 317 199 327 185 336 169 346 153 354 138 363 120 370 104 378 85 384 68 391 48 397 30 402 10 0 688 -436 -11 -431 -32 -424 -53 -418 -73 -411 -93 -402 -113 -395 -131 -385 -149 -376 -167 -366 -184 -355 -201 -344 -217 -333 -232 -321 -248 -308 -262 -295 -276 -281 -290 -267 -302 -252 -316 -236 -327 -221 -338 -205 -350 -188 -360 -170 -370 -152 -379 -134 -388 -114 -397 -95 -404 -75 -411 -54 -418 -33 -424 -11 -430 0 0zm8488 -8346l0 688 0 0 -402 10 -397 30 -391 48 -384 68 -378 85 -370 104 -363 120 -354 138 -346 153 -336 169 -327 185 -317 199 -306 214 -294 228 -283 241 -271 253 -258 267 -246 278 -231 289 -217 300 -203 311 -188 321 -172 330 -156 339 -139 347 -123 355 -105 364 -87 370 -68 376 -50 383 -30 389 -10 394 -686 0 11 -429 33 -425 54 -418 75 -411 95 -404 114 -397 134 -388 152 -379 170 -370 188 -360 205 -350 221 -338 236 -327 252 -316 267 -302 281 -290 295 -276 308 -262 321 -248 333 -232 344 -217 355 -201 366 -184 376 -167 385 -149 395 -131 402 -113 411 -93 418 -73 424 -53 431 -32 436 -11 0 0z"/>
    <path id="1" class="fil1" d="M8488 344c4498,0 8144,3583 8144,8002 0,4419 -3646,8002 -8144,8002 -4498,0 -8145,-3583 -8145,-8002 0,-4419 3647,-8002 8145,-8002z"/>
   </g>
   <g>
    <path class="fil0" d="M14470 8340l-343 0 0 0 -8 -285 -21 -281 -36 -276 -50 -273 -62 -267 -76 -263 -89 -257 -101 -251 -112 -245 -125 -238 -135 -232 -147 -225 -157 -217 -167 -209 -177 -201 -187 -192 -196 -183 -204 -174 -213 -165 -221 -154 -229 -144 -236 -133 -243 -123 -249 -111 -256 -99 -262 -87 -268 -75 -273 -61 -277 -49 -283 -35 -286 -22 -290 -7 0 -344 307 8 303 22 299 38 295 51 289 66 284 79 277 92 272 106 265 117 257 130 251 141 242 153 235 164 226 174 217 185 207 194 198 205 188 213 178 222 167 230 155 239 144 246 133 253 119 261 108 267 94 273 80 279 67 285 53 290 38 294 23 299 8 302 0 0zm-5979 5878l0 -344 0 0 290 -7 286 -21 283 -36 277 -48 273 -62 268 -75 262 -87 256 -99 249 -111 243 -122 236 -134 229 -144 221 -154 213 -165 204 -174 196 -183 187 -192 177 -201 167 -209 157 -217 147 -225 135 -231 125 -239 112 -245 101 -251 89 -257 76 -262 62 -268 50 -272 36 -277 21 -281 8 -285 343 0 -8 303 -23 298 -38 295 -53 289 -67 285 -80 279 -94 273 -108 267 -119 261 -133 253 -144 247 -155 238 -167 231 -178 222 -188 213 -198 204 -207 194 -217 185 -226 174 -235 164 -242 153 -251 141 -257 130 -265 118 -272 105 -277 92 -284 79 -289 66 -295 52 -299 37 -303 23 -307 7 0 0zm-5980 -5878l343 0 0 0 8 285 21 281 36 277 50 272 63 268 75 262 89 257 101 251 113 245 124 239 135 231 147 225 157 217 167 209 177 201 187 192 196 183 204 174 213 165 221 154 229 144 236 134 243 122 250 111 256 99 262 87 267 75 273 62 277 48 283 36 286 21 291 7 0 344 -308 -7 -303 -23 -299 -37 -295 -52 -289 -66 -283 -79 -278 -92 -272 -105 -265 -118 -257 -130 -251 -141 -242 -153 -235 -164 -226 -174 -216 -185 -208 -194 -198 -204 -188 -213 -178 -222 -167 -231 -155 -238 -144 -247 -132 -253 -120 -261 -107 -267 -95 -273 -80 -279 -67 -285 -53 -289 -38 -295 -23 -298 -8 -303 0 0zm5980 -5878l0 344 0 0 -291 7 -286 22 -283 35 -277 49 -273 61 -267 75 -262 87 -256 99 -250 111 -243 123 -236 133 -229 144 -221 154 -213 165 -204 174 -196 183 -187 192 -177 201 -167 209 -157 217 -147 225 -135 232 -124 238 -113 245 -101 251 -89 257 -75 263 -63 267 -50 273 -36 276 -21 281 -8 285 -343 0 8 -302 23 -299 38 -294 53 -290 67 -285 80 -279 95 -273 107 -267 120 -261 132 -253 144 -246 155 -239 167 -230 178 -222 188 -213 198 -205 208 -194 216 -185 226 -174 235 -164 242 -153 251 -141 257 -130 265 -117 272 -106 278 -92 283 -79 289 -66 295 -51 299 -38 303 -22 308 -8 0 0z"/>
   </g>
   <path class="fil2 str0" d="M2821 11147l-362 256 139 419 -361 -258 -363 258 139 -419 -362 -256 447 0 139 -419 137 419 447 0zm-118 36l-332 0 -137 126 469 -126zm-468 126l0 -485 -100 322 100 163zm275 397l-103 -306 -172 -89 275 395zm-276 -396l-486 -133 288 206 198 -73zm1 212l0 -210 -265 390 265 -180z"/>
   <path class="fil2 str0" d="M11072 14640l-362 257 139 419 -361 -258 -363 258 138 -419 -361 -257 447 0 139 -418 137 418 447 0zm-118 37l-332 0 -137 126 469 -126zm-468 126l0 -486 -100 322 100 164zm275 397l-103 -306 -173 -89 276 395zm-276 -396l-486 -133 288 206 198 -73zm1 212l0 -210 -265 390 265 -180z"/>
   <path class="fil2 str0" d="M7733 14802l-362 256 139 419 -361 -258 -363 258 138 -419 -361 -256 447 0 139 -419 137 419 447 0zm-118 36l-332 0 -137 126 469 -126zm-468 126l0 -486 -100 322 100 164zm275 397l-103 -306 -172 -89 275 395zm-276 -396l-486 -133 288 206 198 -73zm1 212l0 -210 -265 390 265 -180z"/>
   <path class="fil2 str0" d="M4806 13399l-361 256 139 419 -362 -258 -363 258 139 -419 -361 -256 447 0 138 -419 137 419 447 0zm-118 36l-331 0 -138 126 469 -126zm-467 126l0 -485 -100 322 100 163zm275 397l-103 -306 -173 -89 276 395zm-277 -396l-485 -133 287 206 198 -73zm2 212l0 -210 -265 390 265 -180z"/>
   <path class="fil2 str0" d="M13754 12960l-361 257 138 419 -361 -259 -363 259 139 -419 -362 -257 447 0 139 -419 137 419 447 0zm-118 36l-331 0 -138 126 469 -126zm-468 126l0 -485 -100 322 100 163zm276 398l-103 -306 -173 -89 276 395zm-277 -397l-485 -132 287 205 198 -73zm1 213l0 -211 -265 390 265 -179z"/>
   <path class="fil3 str1" d="M16344 8881c-181,301 -381,579 -721,709 -142,200 -229,623 -291,1147 -356,-308 -567,-783 -604,-1462 557,30 1090,-145 1616,-394z"/>
   <ellipse class="fil3 str1" cx="15268" cy="8932" rx="250" ry="242"/>
   <ellipse class="fil4 str2" cx="13862" cy="8640" rx="331" ry="321"/>
   <ellipse class="fil5 str3" cx="12810" cy="9736" rx="302" ry="292"/>
   <path class="fil4 str2" d="M15109 8334c-686,715 -1487,972 -2397,806 197,287 498,460 951,469 504,971 994,1095 1482,1148 -284,-341 -505,-776 -550,-1472 270,-204 420,-546 514,-951z"/>
   <path class="fil5 str3" d="M15044 10919c-537,-137 -1044,-431 -1453,-1217 -496,454 -1077,651 -1716,672 303,263 654,348 1052,255 715,527 1418,506 2117,290z"/>
   <path class="fil2 str0" d="M2350 6061l-362 257 139 419 -362 -258 -363 258 139 -419 -361 -257 447 0 138 -418 138 418 447 0zm-119 37l-331 0 -137 126 468 -126zm-467 126l0 -486 -100 322 100 164zm275 397l-103 -306 -173 -89 276 395zm-276 -396l-486 -133 288 206 198 -73zm1 212l0 -210 -265 390 265 -180z"/>
   <path class="fil2 str0" d="M2071 8615l-361 257 138 419 -361 -259 -363 259 139 -419 -362 -257 447 0 139 -419 137 419 447 0zm-118 37l-331 0 -138 126 469 -126zm-468 126l0 -486 -100 322 100 164zm275 397l-103 -306 -172 -89 275 395zm-276 -396l-485 -133 287 206 198 -73zm1 212l0 -210 -265 389 265 -179z"/>
   <path class="fil2 str0" d="M15625 6061l-362 257 139 419 -362 -258 -362 258 138 -419 -361 -257 447 0 138 -418 138 418 447 0zm-118 37l-332 0 -137 126 469 -126zm-468 126l0 -486 -100 322 100 164zm275 397l-103 -306 -173 -89 276 395zm-276 -396l-486 -133 288 206 198 -73zm1 212l0 -210 -265 390 265 -180z"/>
   <path class="fil6" d="M8557 4276c2273,0 4116,1810 4116,4044 0,2233 -1843,4043 -4116,4043 -2273,0 -4116,-1810 -4116,-4043 0,-2234 1843,-4044 4116,-4044z"/>
   <path class="fil1" d="M8481 4381l0 0c78,0 141,63 141,140l0 627c0,77 -63,139 -141,139l0 0c-79,0 -142,-62 -142,-139l0 -627c0,-77 63,-140 142,-140z"/>
   <path class="fil1" d="M6642 5078l0 0c68,-39 156,-16 194,51l166 286c38,67 16,153 -52,191l0 0c-68,38 -155,16 -194,-51l-166 -287c-38,-67 -15,-152 52,-190z"/>
   <path class="fil1" d="M10328 5078l0 0c-67,-39 -155,-16 -194,51l-165 286c-39,67 -16,153 52,191l0 0c67,38 155,16 193,-51l166 -287c39,-67 16,-152 -52,-190z"/>
   <path class="fil1" d="M5831 6715l0 0c38,-67 15,-153 -54,-190l-293 -161c-68,-37 -155,-14 -193,53l0 0c-39,67 -15,153 53,190l294 161c68,37 155,14 193,-53z"/>
   <path class="fil1" d="M8484 11292l0 0c78,0 142,63 142,139l0 628c0,76 -64,139 -142,139l0 0c-78,0 -142,-63 -142,-139l0 -628c0,-76 64,-139 142,-139z"/>
   <path class="fil1" d="M4507 8279l0 0c0,-76 64,-139 142,-139l638 0c78,0 142,63 142,139l0 0c0,77 -64,140 -142,140l-638 0c-78,0 -142,-63 -142,-140z"/>
   <path class="fil1" d="M9870 11166l0 0c67,-39 155,-16 194,51l165 287c39,66 16,152 -51,190l0 0c-68,38 -156,16 -194,-51l-166 -287c-39,-67 -16,-152 52,-190z"/>
   <path class="fil1" d="M7084 10926l0 0c-67,-38 -155,-15 -194,51l-165 287c-39,67 -16,152 51,191l0 0c68,38 156,15 194,-51l166 -287c39,-67 16,-152 -52,-191z"/>
   <path class="fil1" d="M5939 9929l0 0c-39,-66 -127,-90 -194,-51l-290 166c-67,39 -91,124 -52,190l0 0c38,67 126,91 193,52l290 -166c68,-39 92,-124 53,-191z"/>
   <path class="fil1" d="M11746 10188l0 0c41,-65 20,-152 -47,-192l-287 -170c-67,-40 -154,-20 -195,46l0 0c-41,65 -20,152 46,191l288 171c67,39 154,19 195,-46z"/>
   <path class="fil1" d="M11269 6742l0 0c44,63 132,81 197,38l277 -186c65,-43 83,-130 39,-193l0 0c-43,-64 -132,-82 -197,-39l-277 186c-65,43 -82,130 -39,194z"/>
   <path class="fil1" d="M8557 5460c1607,0 2910,1280 2910,2860 0,1579 -1303,2859 -2910,2859 -1607,0 -2910,-1280 -2910,-2859 0,-1580 1303,-2860 2910,-2860z"/>
   <path class="fil2" d="M8498 6132l0 0c84,0 153,67 152,149l-1 2190c0,83 -68,150 -152,150l0 0c-84,0 -152,-68 -152,-150l1 -2190c0,-82 69,-149 152,-149z"/>
   <path class="fil2" d="M9153 9532l0 0c70,-46 102,-132 60,-204l-582 -981c-42,-71 -137,-104 -207,-59l0 0c-69,46 -101,133 -59,204l582 981c42,71 137,104 206,59z"/>
   <g>
    <path class="fil7" d="M8816 8433l-105 0 0 0 0 -9 -1 -9 -1 -8 -2 -9 -2 -8 -2 -8 -3 -8 -3 -8 -3 -8 -4 -7 -5 -8 -4 -7 -5 -7 -5 -6 -6 -7 -6 -6 -6 -5 -7 -6 -6 -5 -7 -5 -8 -5 -7 -4 -8 -4 -8 -3 -8 -3 -8 -3 -9 -2 -8 -2 -9 -2 -9 -1 -9 -1 -10 0 0 -106 15 1 14 1 14 1 14 3 14 3 14 4 13 4 13 5 12 6 12 6 12 6 12 8 11 8 11 8 10 9 10 9 9 9 9 11 9 10 8 11 7 12 7 11 6 12 6 13 5 13 5 13 3 13 4 14 2 13 2 15 1 14 0 14 0 0zm-284 280l0 -106 0 0 10 0 9 0 9 -2 9 -1 8 -2 9 -2 8 -3 8 -3 8 -4 8 -4 7 -4 8 -5 7 -4 6 -6 7 -5 6 -6 6 -6 6 -6 5 -7 5 -7 4 -7 5 -7 4 -8 3 -7 3 -8 3 -8 2 -8 2 -9 2 -8 1 -9 1 -9 0 -9 105 0 0 15 -1 14 -2 14 -2 14 -4 13 -3 14 -5 13 -5 13 -6 12 -6 12 -7 12 -7 11 -8 11 -9 11 -9 10 -9 10 -10 9 -10 9 -11 8 -11 8 -12 7 -12 7 -12 6 -12 5 -13 5 -13 5 -14 4 -14 3 -14 2 -14 2 -14 1 -15 0 0 0zm-284 -280l106 0 0 0 0 9 1 9 1 9 2 8 2 9 2 8 3 8 3 8 3 7 4 8 5 7 4 7 5 7 5 7 6 6 6 6 6 6 7 5 6 6 7 4 8 5 7 4 8 4 8 4 8 3 8 3 9 2 8 2 9 1 9 2 9 0 9 0 0 106 -14 0 -14 -1 -15 -2 -13 -2 -14 -3 -14 -4 -13 -5 -13 -5 -12 -5 -13 -6 -11 -7 -12 -7 -11 -8 -11 -8 -10 -9 -10 -9 -9 -10 -9 -10 -9 -11 -8 -11 -7 -11 -7 -12 -6 -12 -6 -12 -5 -13 -5 -13 -4 -14 -3 -13 -2 -14 -2 -14 -1 -14 -1 -15 0 0zm284 -280l0 106 0 0 -9 0 -9 1 -9 1 -9 2 -8 2 -9 2 -8 3 -8 3 -8 3 -8 4 -7 4 -8 5 -7 5 -6 5 -7 6 -6 5 -6 6 -6 7 -5 6 -5 7 -4 7 -5 8 -4 7 -3 8 -3 8 -3 8 -2 8 -2 8 -2 9 -1 8 -1 9 0 9 -106 0 1 -14 1 -14 2 -15 2 -13 3 -14 4 -13 5 -13 5 -13 6 -13 6 -12 7 -11 7 -12 8 -11 9 -10 9 -11 9 -9 10 -9 10 -9 11 -8 11 -8 12 -8 11 -6 13 -6 12 -6 13 -5 13 -4 14 -4 14 -3 13 -3 15 -1 14 -1 14 -1 0 0z"/>
    <path id="1" class="fil2" d="M8532 8206c128,0 232,102 232,227 0,126 -104,227 -232,227 -127,0 -231,-101 -231,-227 0,-125 104,-227 231,-227z"/>
   </g>
   <path class="fil1" d="M11380 8412l0 0c0,-69 57,-126 128,-126l577 0c70,0 128,57 128,126l0 0c0,69 -58,126 -128,126l-577 0c-71,0 -128,-57 -128,-126z"/>
   <polygon class="fil1 str4" points="10347,7820 12711,7820 12711,9071 10347,9071 "/>
   <path class="fil8" d="M12688 8634l389 -37c16,46 39,79 68,98 28,20 67,29 115,29 53,0 94,-11 123,-33 22,-16 33,-37 33,-61 0,-28 -15,-49 -44,-65 -21,-10 -78,-24 -169,-39 -136,-24 -230,-45 -283,-65 -53,-20 -98,-54 -134,-101 -37,-47 -55,-101 -55,-162 0,-66 20,-123 59,-171 39,-48 93,-84 162,-108 69,-23 161,-35 276,-35 122,0 212,9 271,27 58,18 106,47 145,85 39,39 71,91 97,156l-372 37c-10,-33 -26,-56 -48,-72 -31,-20 -68,-30 -112,-30 -44,0 -77,8 -97,23 -20,16 -30,35 -30,57 0,25 13,43 39,56 25,12 81,23 167,34 130,14 227,34 291,60 64,26 112,63 146,111 34,48 51,100 51,158 0,58 -18,115 -54,170 -36,55 -92,98 -168,131 -77,32 -182,48 -314,48 -187,0 -320,-26 -399,-78 -80,-53 -131,-127 -153,-223z"/>
   <path class="fil6" d="M8807 7912l3 0 0 -316 405 0 0 316 195 0 0 235 -195 0 0 378c0,58 11,92 34,103 23,10 76,15 159,15l0 287c1,0 -30,2 -93,4 -63,3 -108,4 -136,4 -43,0 -82,-1 -117,-4l-202 -341 0 -2c0,-52 -20,-98 -54,-133l1 -546z"/>
   <path class="fil0" d="M9947 8237l-374 -39c14,-64 34,-115 61,-152 27,-36 65,-68 115,-96 36,-19 86,-34 148,-45 63,-11 131,-16 205,-16 117,0 212,6 283,19 71,13 131,40 178,81 34,29 60,69 79,121 19,52 29,101 29,149l0 444c0,47 3,84 9,111 6,27 19,61 40,103l-368 0c-15,-26 -24,-46 -29,-59 -4,-14 -9,-35 -13,-64 -52,49 -103,83 -154,104 -69,28 -149,41 -241,41 -122,0 -215,-27 -278,-83 -64,-55 -95,-124 -95,-205 0,-77 23,-139 68,-188 46,-50 130,-86 252,-110 148,-29 243,-50 287,-61 43,-12 90,-28 138,-46 0,-48 -9,-81 -29,-100 -20,-19 -55,-28 -105,-28 -65,0 -113,10 -145,30 -25,16 -45,46 -61,89zm340 203c-54,19 -110,35 -168,50 -80,21 -130,41 -151,61 -22,21 -33,45 -33,71 0,31 11,55 32,75 22,19 53,29 95,29 44,0 84,-11 122,-31 38,-21 64,-47 80,-77 16,-30 23,-69 23,-117l0 -61z"/>
   <path class="fil8" d="M10913 7931l366 0 0 147c53,-62 106,-105 159,-131 54,-26 119,-39 195,-39 81,0 146,14 193,43 48,28 86,70 117,127 61,-66 118,-111 168,-135 51,-23 114,-35 188,-35 110,0 196,32 257,96 62,64 93,164 93,301l0 631 -393 0 0 -572c0,-46 -9,-80 -27,-102 -26,-35 -59,-52 -98,-52 -46,0 -84,16 -112,49 -29,33 -42,86 -42,158l0 519 -394 0 0 -554c0,-44 -2,-74 -7,-90 -9,-25 -23,-45 -44,-61 -20,-15 -44,-23 -72,-23 -45,0 -82,17 -111,50 -29,34 -43,89 -43,165l0 513 -393 0 0 -1005z"/>
   <path class="fil0" d="M4102 3852l-583 -604 -215 201 -119 -123 576 -537 119 123 -215 200 583 604 -146 136zm1127 -867l-179 125 -205 -136 -326 227 67 232 -175 122 -273 -1038 174 -122 917 590zm-537 -112l-331 -225 109 380 222 -155zm630 54l-420 -913 275 -122 451 549 -123 -695 276 -123 420 913 -170 76 -331 -719 150 800 -177 78 -511 -639 331 719 -171 76zm913 -763l184 -71c57,118 144,160 263,127 58,-16 101,-41 127,-76 27,-34 35,-70 24,-108 -6,-22 -17,-39 -34,-51 -16,-12 -37,-19 -64,-23 -27,-3 -90,-3 -189,-1 -88,2 -155,-3 -201,-17 -45,-14 -85,-37 -119,-70 -33,-33 -57,-72 -70,-117 -15,-53 -14,-104 3,-154 17,-50 48,-93 93,-129 45,-36 105,-64 181,-85 113,-31 208,-30 286,3 78,33 133,96 163,189l-192 62c-23,-50 -52,-81 -86,-94 -34,-12 -78,-11 -130,3 -52,14 -90,35 -113,60 -23,26 -31,52 -23,79 7,27 26,45 57,56 31,11 96,14 194,10 104,-3 182,2 233,15 50,14 93,38 128,72 34,34 60,80 76,138 24,84 13,163 -33,237 -47,75 -137,130 -270,167 -236,65 -398,-9 -488,-222zm1351 -323l195 -34c32,126 110,184 232,175 61,-4 108,-21 140,-50 34,-29 48,-62 45,-101 -1,-23 -9,-42 -22,-56 -14,-16 -33,-27 -59,-36 -26,-8 -87,-20 -185,-37 -87,-16 -152,-34 -193,-56 -42,-22 -76,-52 -103,-91 -26,-39 -41,-82 -45,-129 -4,-54 7,-104 34,-150 26,-46 65,-82 117,-109 51,-26 116,-42 194,-48 117,-8 210,11 280,58 70,47 110,120 122,217l-201 24c-13,-54 -35,-90 -66,-109 -31,-19 -73,-26 -127,-22 -55,4 -96,16 -123,37 -28,21 -41,45 -39,73 2,27 17,49 45,66 28,16 91,32 188,47 103,17 178,37 225,60 47,23 84,55 111,95 27,40 43,90 48,150 7,87 -20,162 -80,226 -61,64 -160,101 -298,112 -245,18 -389,-86 -435,-312zm1083 -733l201 15 -42 541c-7,84 -9,139 -6,165 6,45 24,80 56,107 31,26 74,42 129,46 46,3 85,-3 116,-17 30,-15 52,-37 65,-67 13,-29 24,-94 31,-193l43 -553 202 15 -41 525c-10,134 -27,230 -49,289 -22,58 -64,104 -128,136 -64,33 -146,45 -246,38 -104,-8 -184,-30 -240,-65 -56,-35 -95,-81 -117,-139 -22,-57 -27,-161 -15,-310l41 -533zm926 1087l270 -966 291 78 -9 707 357 -613 292 79 -270 966 -181 -49 213 -760 -404 709 -188 -51 23 -812 -213 761 -181 -49zm1124 308l418 -914 275 122 -120 696 449 -551 276 122 -418 914 -170 -76 329 -719 -510 639 -178 -78 149 -799 -329 720 -171 -76zm1034 515l553 -841 169 107 -553 841 -169 -107zm513 330l524 -654 -233 -181 107 -133 624 482 -107 134 -233 -180 -523 654 -159 -122z"/>
  </g>
 </g>
</svg>
