<svg width="94" height="68" viewBox="0 0 94 68" fill="none" xmlns="http://www.w3.org/2000/svg">
<g clip-path="url(#clip0)">
<path fill-rule="evenodd" clip-rule="evenodd" d="M47.164 0.000976562C69.3858 0.000976562 87.7218 17.2153 90.3705 39.4525H77.4809C74.9348 24.5231 62.3327 13.1858 47.164 13.1858C30.1627 13.1858 16.3799 27.4359 16.3799 45.0156C16.3799 47.6145 16.6828 50.1413 17.2525 52.5601H4.23976C3.83937 50.1053 3.62891 47.5836 3.62891 45.0156C3.62891 20.1539 23.1198 0.000976562 47.164 0.000976562Z" fill="#007AC1"/>
<path fill-rule="evenodd" clip-rule="evenodd" d="M4.31738 44.5628C4.31738 43.7136 4.99497 43.0137 5.82142 43.0137H12.5768C13.3981 43.0137 14.0757 43.7136 14.0757 44.5628C14.0757 45.4171 13.3981 46.1169 12.5768 46.1169H5.82142C4.99497 46.1169 4.31738 45.4171 4.31738 44.5628Z" fill="#FEFEFE"/>
<path fill-rule="evenodd" clip-rule="evenodd" d="M46.3534 1.17435C47.1799 1.17435 47.8523 1.8691 47.8523 2.72338V9.70691C47.8523 10.5612 47.1799 11.2611 46.3534 11.2611C45.5269 11.2611 44.8545 10.5612 44.8545 9.70691V2.72338C44.8545 1.8691 45.5269 1.17435 46.3534 1.17435Z" fill="#FEFEFE"/>
<path fill-rule="evenodd" clip-rule="evenodd" d="M26.9083 8.92464C27.6218 8.4975 28.5509 8.74967 28.9565 9.49073L30.712 12.6866C31.1176 13.4276 30.8763 14.3797 30.1628 14.8069C29.4493 15.234 28.5201 14.9818 28.1095 14.2356L26.359 11.0449C25.9535 10.3038 26.1948 9.35178 26.9083 8.92464Z" fill="#FEFEFE"/>
<path fill-rule="evenodd" clip-rule="evenodd" d="M65.9006 8.92464C65.1819 8.4975 64.2579 8.74967 63.8473 9.49073L62.0968 12.6866C61.6862 13.4276 61.9274 14.3797 62.6461 14.8069C63.3596 15.234 64.2887 14.9818 64.6942 14.2356L66.4498 11.0449C66.8553 10.3038 66.6141 9.35178 65.9006 8.92464Z" fill="#FEFEFE"/>
<path fill-rule="evenodd" clip-rule="evenodd" d="M18.3259 27.1477C18.7314 26.4066 18.4799 25.4494 17.7613 25.0325L14.6556 23.2519C13.937 22.8351 13.0181 23.0924 12.6126 23.8335C12.2019 24.5797 12.4535 25.5369 13.1773 25.9486L16.2829 27.7343C17.0015 28.1512 17.9204 27.8939 18.3259 27.1477Z" fill="#FEFEFE"/>
<path fill-rule="evenodd" clip-rule="evenodd" d="M75.8487 27.4462C76.3107 28.1564 77.25 28.3519 77.9328 27.8733L80.869 25.8045C81.5517 25.3259 81.7365 24.3584 81.2796 23.6533C80.8176 22.9432 79.8783 22.7476 79.1955 23.2262L76.2593 25.295C75.5817 25.7736 75.3918 26.7411 75.8487 27.4462Z" fill="#FEFEFE"/>
<path d="M6.34956 60.0531V61.3036H2.40723V56.0544H6.34956V57.2638H3.98827V58.0306H5.89783V59.1937H3.98827V60.0531H6.34956ZM12.7866 56.0544V61.3036H11.2929V57.5468L10.3176 61.3036H9.30118L8.29506 57.5468V61.3036H7.09388V56.0544H9.18824L9.94796 58.8437L10.6718 56.0544H12.7866ZM15.4354 59.3995V61.3036H13.803V56.0544H16.0411C16.5955 56.0544 17.0216 56.1162 17.3142 56.2448C17.6016 56.3735 17.8326 56.569 18.002 56.8367C18.1714 57.0991 18.2587 57.3976 18.2587 57.7218C18.2587 58.2262 18.0842 58.6276 17.7351 58.9363C17.3912 59.2451 16.924 59.3995 16.344 59.3995H15.4354ZM15.4149 58.2725H15.9487C16.421 58.2725 16.6571 58.0975 16.6571 57.7424C16.6571 57.4079 16.4364 57.2432 16.0001 57.2432H15.4149V58.2725ZM22.6373 60.0119V61.3036H18.9619V56.0544H20.5738V60.0119H22.6373ZM25.4914 61.386C24.7574 61.386 24.1568 61.139 23.6897 60.6501C23.2277 60.1612 22.9967 59.5024 22.9967 58.6842C22.9967 57.9019 23.2174 57.2535 23.6589 56.7389C24.1055 56.2294 24.7214 55.9721 25.5068 55.9721C26.2409 55.9721 26.8363 56.214 27.2932 56.6977C27.7552 57.1763 27.9811 57.8196 27.9811 58.6276C27.9811 59.4613 27.7501 60.1303 27.2881 60.6295C26.8261 61.1338 26.2255 61.386 25.4914 61.386ZM25.4863 60.1972C25.7584 60.1972 25.9534 60.0737 26.0766 59.8369C26.1947 59.6002 26.2563 59.1679 26.2563 58.5349C26.2563 57.6189 26.0099 57.1609 25.5171 57.1609C24.9884 57.1609 24.7214 57.6858 24.7214 58.7253C24.7214 59.7031 24.9781 60.1972 25.4863 60.1972ZM32.8371 56.0544L31.1996 59.0856V61.3036H29.634V59.0856L27.8733 56.0544H29.634L30.5528 57.7784L31.4306 56.0544H32.8371ZM37.185 60.0531V61.3036H33.2426V56.0544H37.185V57.2638H34.8185V58.0306H36.7281V59.1937H34.8185V60.0531H37.185ZM41.8665 60.0531V61.3036H37.9242V56.0544H41.8665V57.2638H39.5052V58.0306H41.4096V59.1937H39.5052V60.0531H41.8665ZM46.8355 61.386C46.0963 61.386 45.4957 61.139 45.0337 60.6501C44.5666 60.1612 44.3356 59.5024 44.3356 58.6842C44.3356 57.9019 44.5563 57.2535 45.0029 56.7389C45.4444 56.2294 46.0603 55.9721 46.8509 55.9721C47.5798 55.9721 48.1752 56.214 48.6372 56.6977C49.0941 57.1763 49.3251 57.8196 49.3251 58.6276C49.3251 59.4613 49.0941 60.1303 48.627 60.6295C48.165 61.1338 47.5695 61.386 46.8355 61.386ZM46.8303 60.1972C47.1024 60.1972 47.2975 60.0737 47.4155 59.8369C47.5336 59.6002 47.5952 59.1679 47.5952 58.5349C47.5952 57.6189 47.3488 57.1609 46.856 57.1609C46.3273 57.1609 46.0655 57.6858 46.0655 58.7253C46.0655 59.7031 46.317 60.1972 46.8303 60.1972ZM53.3804 59.3378H51.671V61.3036H50.1053V56.0544H53.8937V57.305H51.671V58.1541H53.3804V59.3378ZM58.6265 57.3101V61.3036H57.102V57.3101H56.0188V56.0544H59.7096V57.3101H58.6265ZM64.7094 56.0544V61.3036H63.1027V59.2657H61.8861V61.3036H60.2743V56.0544H61.8861V57.9894H63.1027V56.0544H64.7094ZM69.6733 60.0531V61.3036H65.7309V56.0544H69.6733V57.2638H67.312V58.0306H69.2216V59.1937H67.312V60.0531H69.6733ZM76.7264 56.0544L75.0889 59.0856V61.3036H73.5232V59.0856L71.7625 56.0544H73.5232L74.4421 57.7784L75.3198 56.0544H76.7264ZM81.0742 60.0531V61.3036H77.1319V56.0544H81.0742V57.2638H78.7078V58.0306H80.6174V59.1937H78.7078V60.0531H81.0742ZM84.7086 61.3036L84.4211 60.2744H82.994L82.6861 61.3036H81.3822L82.9992 56.0544H84.6983L86.3512 61.3036H84.7086ZM83.2866 59.1216H84.1234L83.7024 57.6035L83.2866 59.1216ZM91.5871 61.3036H89.8059L89.0359 59.2966H88.5431V61.3036H86.9312V56.0544H89.6673C90.2679 56.0544 90.7401 56.1934 91.0738 56.4764C91.4074 56.7595 91.5717 57.1351 91.5717 57.5983C91.5717 57.9019 91.5101 58.1695 91.3869 58.4011C91.2637 58.6379 91.0173 58.8386 90.6426 59.0187L91.5871 61.3036ZM88.5431 58.1798H89.2258C89.4311 58.1798 89.5903 58.1387 89.7135 58.0512C89.8367 57.9637 89.8983 57.8402 89.8983 57.6755C89.8983 57.341 89.6929 57.1712 89.2823 57.1712H88.5431V58.1798Z" fill="#2B2A29"/>
<path d="M94 54.2172H0V53.6871H94V54.2172Z" fill="#0071B9"/>
<path d="M21.6519 44.115H24.0491L27.1701 48.9217V44.115H29.5981V52.8225H27.1701L24.0696 48.0416V52.8225H21.6519V44.115ZM31.9286 44.115H34.5055V52.8225H31.9286V44.115ZM41.0401 49.673V47.8615H45.0133V51.5617C44.2535 52.1072 43.5811 52.4777 42.9959 52.6733C42.4107 52.8689 41.7177 52.9666 40.9169 52.9666C39.9313 52.9666 39.1254 52.7917 38.5043 52.4366C37.8832 52.0866 37.4007 51.5617 37.0567 50.867C36.7128 50.1722 36.5434 49.3694 36.5434 48.4688C36.5434 47.5167 36.7333 46.6933 37.1081 45.9883C37.4777 45.2884 38.0269 44.7583 38.7507 44.3929C39.3154 44.1099 40.0699 43.9709 41.0247 43.9709C41.9436 43.9709 42.6314 44.0584 43.0832 44.2334C43.54 44.4084 43.9199 44.676 44.2176 45.0413C44.5205 45.4067 44.7463 45.875 44.8952 46.436L42.421 46.8992C42.3183 46.5698 42.1489 46.3176 41.9025 46.1427C41.6612 45.9677 41.3481 45.8802 40.9683 45.8802C40.4087 45.8802 39.9621 46.086 39.6233 46.4926C39.2897 46.9043 39.1254 47.5527 39.1254 48.4379C39.1254 49.3745 39.2897 50.0487 39.6285 50.4501C39.9673 50.8567 40.4395 51.0574 41.0453 51.0574C41.3327 51.0574 41.6048 51.0162 41.8666 50.9287C42.1232 50.8412 42.421 50.692 42.7598 50.4861V49.673H41.0401ZM47.0512 44.115H53.9297V45.978H49.628V47.3623H53.6114V49.1378H49.628V50.8515H54.0529V52.8225H47.0512V44.115ZM55.9881 52.8225V44.115H60.2744C61.0649 44.115 61.6758 44.1871 62.0916 44.3312C62.5125 44.4753 62.8513 44.7377 63.108 45.1237C63.3646 45.5097 63.4929 45.9831 63.4929 46.5389C63.4929 47.0175 63.3954 47.4395 63.2003 47.7895C63.0002 48.1394 62.7332 48.4225 62.3842 48.6438C62.1686 48.7827 61.8657 48.8959 61.4807 48.9886C61.7887 49.0966 62.0094 49.1996 62.1532 49.3076C62.2456 49.3797 62.379 49.5341 62.5587 49.7656C62.7384 49.9972 62.8616 50.1774 62.918 50.306L64.1705 52.8225H61.2651L59.8894 50.1671C59.7149 49.8223 59.5609 49.601 59.4274 49.498C59.2426 49.3642 59.0322 49.2973 58.796 49.2973H58.5702V52.8225H55.9881ZM58.5702 47.6557H59.6533C59.7713 47.6557 60.0023 47.6145 60.336 47.5322C60.5054 47.5013 60.644 47.4086 60.7518 47.2594C60.8596 47.1153 60.9161 46.9455 60.9161 46.7551C60.9161 46.472 60.8288 46.2559 60.6594 46.1066C60.49 45.9522 60.1717 45.8802 59.6995 45.8802H58.5702V47.6557ZM65.613 44.115H68.1899V52.8225H65.613V44.115ZM75.6587 51.3867H72.7482L72.3324 52.8225H69.7093L72.8406 44.115H75.6536L78.7695 52.8225H76.0745L75.6587 51.3867ZM75.1146 49.5032L74.2112 46.3742L73.2974 49.5032H75.1146ZM78.867 43.9709H81.331V45.9574C81.331 46.6882 81.1821 47.2645 80.8946 47.6917C80.6021 48.1137 80.1041 48.4894 79.4009 48.8084L78.867 47.7534C79.3033 47.5424 79.6011 47.3263 79.7653 47.1153C79.9296 46.9043 80.022 46.6521 80.0374 46.3639H78.867V43.9709ZM82.6194 49.9406L85.0628 49.7811C85.1142 50.1928 85.222 50.5119 85.3862 50.728C85.648 51.078 86.0279 51.2529 86.5207 51.2529C86.8851 51.2529 87.1675 51.1654 87.3625 50.9853C87.5627 50.8052 87.6603 50.5942 87.6603 50.3575C87.6603 50.131 87.5679 49.9303 87.3831 49.7502C87.1931 49.5752 86.7568 49.4054 86.069 49.2459C84.9448 48.9834 84.1389 48.6283 83.6615 48.1909C83.1789 47.7534 82.9377 47.1925 82.9377 46.5132C82.9377 46.0655 83.0609 45.6486 83.3073 45.2472C83.5537 44.8509 83.9284 44.537 84.4263 44.3106C84.9191 44.0841 85.6018 43.9709 86.4694 43.9709C87.5319 43.9709 88.3379 44.1768 88.8974 44.5936C89.4569 45.0053 89.7854 45.664 89.8932 46.5698L87.4755 46.719C87.4139 46.3228 87.2753 46.0346 87.0699 45.8545C86.8646 45.6743 86.5823 45.5869 86.2178 45.5869C85.9201 45.5869 85.6942 45.6538 85.5454 45.7876C85.3914 45.9162 85.3144 46.0809 85.3144 46.2713C85.3144 46.4103 85.376 46.5338 85.4992 46.6418C85.6172 46.7602 85.9047 46.8631 86.3564 46.9609C87.4806 47.2182 88.2865 47.4755 88.769 47.7329C89.2567 47.9902 89.6109 48.3144 89.8316 48.6952C90.0472 49.0812 90.1602 49.5083 90.1602 49.9869C90.1602 50.5427 90.0113 51.0574 89.7187 51.5308C89.421 51.9991 89.0103 52.3594 88.4816 52.6013C87.9529 52.8431 87.2855 52.9666 86.4796 52.9666C85.068 52.9666 84.0875 52.6785 83.5434 52.1124C82.9993 51.5411 82.6913 50.8206 82.6194 49.9406Z" fill="#2B2A29"/>
<path d="M61.9276 66.4602C61.9276 66.594 61.9635 66.7021 62.0303 66.7793C62.097 66.8617 62.1843 66.9028 62.2972 66.9028C62.405 66.9028 62.4923 66.8668 62.5539 66.7896C62.6155 66.7124 62.6463 66.6095 62.6463 66.4705C62.6463 66.3316 62.6155 66.2235 62.5487 66.1463C62.4871 66.0691 62.3999 66.0331 62.2869 66.0331C62.174 66.0331 62.0867 66.0691 62.0251 66.1463C61.9635 66.2184 61.9276 66.3213 61.9276 66.4602ZM61.6401 67.7262V65.8118H61.9379V66.0228C61.9738 65.9405 62.0303 65.8787 62.1073 65.8324C62.1791 65.7912 62.2715 65.7655 62.3793 65.7655C62.5487 65.7655 62.6925 65.8324 62.8002 65.9611C62.9029 66.0846 62.9594 66.2544 62.9594 66.4602C62.9594 66.6815 62.908 66.8514 62.8002 66.9749C62.6976 67.1035 62.5487 67.1653 62.3691 67.1653C62.2767 67.1653 62.1945 67.1498 62.1227 67.1087C62.0559 67.0726 61.9943 67.0212 61.9379 66.944V67.7262H61.6401ZM64.294 66.4654C64.294 66.347 64.253 66.2441 64.176 66.1618C64.099 66.0743 64.0014 66.0331 63.8936 66.0331C63.7807 66.0331 63.6832 66.0743 63.6062 66.1618C63.5292 66.2441 63.4932 66.347 63.4932 66.4654C63.4932 66.5889 63.5292 66.6918 63.6062 66.7742C63.6832 66.8565 63.7807 66.8977 63.8936 66.8977C64.0014 66.8977 64.099 66.8565 64.176 66.7742C64.253 66.6918 64.294 66.5889 64.294 66.4654ZM63.175 66.4654C63.175 66.3676 63.1955 66.2801 63.2314 66.1926C63.2674 66.1103 63.3187 66.0331 63.3854 65.9713C63.4522 65.9044 63.5292 65.853 63.6164 65.817C63.7037 65.7861 63.7961 65.7655 63.8885 65.7655C63.986 65.7655 64.0784 65.7861 64.1657 65.817C64.2478 65.853 64.33 65.9044 64.3967 65.9713C64.4634 66.0382 64.5148 66.1154 64.5507 66.1978C64.5866 66.2853 64.6072 66.3728 64.6072 66.4654C64.6072 66.558 64.5866 66.6507 64.5507 66.733C64.5199 66.8205 64.4686 66.8925 64.3967 66.9594C64.33 67.0263 64.2478 67.0778 64.1606 67.1138C64.0733 67.1498 63.986 67.1653 63.8885 67.1653C63.7961 67.1653 63.7037 67.1498 63.6164 67.1138C63.5292 67.0778 63.4522 67.0263 63.3854 66.9594C63.3187 66.8925 63.2674 66.8153 63.2314 66.733C63.1955 66.6507 63.175 66.558 63.175 66.4654ZM66.1574 67.191L65.8597 66.5117C65.8391 66.4602 65.8186 66.4139 65.8032 66.3728C65.7878 66.3367 65.7775 66.2956 65.7621 66.2544C65.7467 66.3161 65.7262 66.3676 65.7108 66.4088C65.6954 66.4499 65.6851 66.4808 65.6749 66.5014L65.3669 67.191L64.6944 65.8118H65.0127L65.3001 66.4397C65.3155 66.4654 65.3258 66.5014 65.3361 66.5477C65.3463 66.594 65.3566 66.6455 65.3669 66.7021C65.3669 66.6661 65.372 66.6352 65.3823 66.5992C65.3925 66.5632 65.4079 66.5168 65.4336 66.4654L65.7519 65.7655H65.7775L66.1009 66.4654C66.1163 66.5117 66.1317 66.5529 66.142 66.5889C66.1523 66.6249 66.1574 66.6609 66.1574 66.7021C66.1677 66.6507 66.1779 66.6043 66.1933 66.5632C66.2036 66.5168 66.219 66.4757 66.2344 66.4397L66.5218 65.8118H66.835L66.1574 67.191ZM68.2672 66.5066H67.2302C67.2405 66.6249 67.2764 66.7227 67.338 66.7896C67.4048 66.8617 67.492 66.8925 67.5998 66.8925C67.6922 66.8925 67.7744 66.8719 67.836 66.8308C67.9027 66.7947 67.9592 66.7278 68.0054 66.6352L68.2569 66.7793C68.1799 66.908 68.0926 67.0057 67.9848 67.0675C67.877 67.1344 67.7487 67.1653 67.605 67.1653C67.3945 67.1653 67.2302 67.1035 67.107 66.9749C66.9838 66.8462 66.9222 66.6764 66.9222 66.4654C66.9222 66.2647 66.989 66.0949 67.1173 65.9662C67.2405 65.8324 67.4048 65.7655 67.605 65.7655C67.8154 65.7655 67.9746 65.8272 68.0926 65.9456C68.2107 66.064 68.2672 66.2338 68.2672 66.4499V66.5066ZM67.9592 66.3059C67.9489 66.2132 67.913 66.1412 67.8514 66.0949C67.7949 66.0434 67.7128 66.0177 67.6101 66.0177C67.5126 66.0177 67.4356 66.0434 67.374 66.0897C67.3175 66.1412 67.2764 66.2081 67.2508 66.3059H67.9592ZM68.8729 66.0177C68.9037 65.9353 68.9499 65.8684 69.0012 65.8272C69.0525 65.7861 69.1193 65.7655 69.1963 65.7655C69.2373 65.7655 69.2784 65.7706 69.3195 65.7809C69.3605 65.7912 69.4016 65.8067 69.4375 65.8272L69.3349 66.0794C69.3092 66.0588 69.2784 66.0485 69.2476 66.0382C69.2219 66.028 69.186 66.028 69.1501 66.028C69.0525 66.028 68.9807 66.064 68.9396 66.1463C68.8934 66.2235 68.8729 66.3573 68.8729 66.5426V67.1138H68.5751V65.8118H68.8729V66.0177ZM70.8594 66.5066H69.8225C69.8277 66.6249 69.8636 66.7227 69.9303 66.7896C69.9919 66.8617 70.0792 66.8925 70.187 66.8925C70.2845 66.8925 70.3615 66.8719 70.4282 66.8308C70.4898 66.7947 70.5463 66.7278 70.5925 66.6352L70.844 66.7793C70.7722 66.908 70.6798 67.0057 70.572 67.0675C70.4642 67.1344 70.341 67.1653 70.1921 67.1653C69.9868 67.1653 69.8225 67.1035 69.6993 66.9749C69.5761 66.8462 69.5145 66.6764 69.5145 66.4654C69.5145 66.2647 69.5761 66.0949 69.7045 65.9662C69.8328 65.8324 69.9919 65.7655 70.1921 65.7655C70.4026 65.7655 70.5668 65.8272 70.6798 65.9456C70.7978 66.064 70.8594 66.2338 70.8594 66.4499V66.5066ZM70.5514 66.3059C70.536 66.2132 70.5001 66.1412 70.4436 66.0949C70.382 66.0434 70.2999 66.0177 70.1973 66.0177C70.0997 66.0177 70.0227 66.0434 69.9663 66.0897C69.9047 66.1412 69.8636 66.2081 69.8379 66.3059H70.5514ZM72.0965 66.4602C72.0965 66.3213 72.0658 66.2184 72.0042 66.1463C71.9426 66.0691 71.8553 66.0331 71.7424 66.0331C71.6294 66.0331 71.5422 66.0691 71.4806 66.1463C71.4138 66.2235 71.383 66.3316 71.383 66.4705C71.383 66.6095 71.4138 66.7124 71.4754 66.7896C71.537 66.8668 71.6243 66.9028 71.7372 66.9028C71.845 66.9028 71.9323 66.8617 71.999 66.7793C72.0658 66.697 72.0965 66.594 72.0965 66.4602ZM72.0914 64.9884H72.3891V67.1138H72.0914V66.944C72.035 67.0212 71.9734 67.0726 71.9066 67.1087C71.8348 67.1498 71.7526 67.1653 71.6602 67.1653C71.4806 67.1653 71.3317 67.1035 71.229 66.9749C71.1212 66.8514 71.0699 66.6815 71.0699 66.4602C71.0699 66.2544 71.1264 66.0846 71.2342 65.9611C71.342 65.8324 71.4806 65.7655 71.6551 65.7655C71.7578 65.7655 71.8502 65.7912 71.9272 65.8324C71.999 65.8787 72.0555 65.9405 72.0914 66.0228V64.9884ZM73.9291 66.4602C73.9291 66.5889 73.9599 66.697 74.0318 66.7793C74.0985 66.8617 74.1858 66.9028 74.2936 66.9028C74.4065 66.9028 74.4938 66.8668 74.5554 66.7896C74.617 66.7124 74.6478 66.6095 74.6478 66.4705C74.6478 66.3316 74.617 66.2235 74.5502 66.1463C74.4886 66.0691 74.3962 66.0331 74.2833 66.0331C74.1755 66.0331 74.0882 66.0691 74.0215 66.1463C73.9599 66.2184 73.9291 66.3213 73.9291 66.4602ZM73.9394 64.9884V66.0228C73.9702 65.9405 74.0266 65.8787 74.1036 65.8324C74.1806 65.7912 74.273 65.7655 74.3757 65.7655C74.5502 65.7655 74.6888 65.8324 74.7966 65.9611C74.9044 66.0846 74.9558 66.2544 74.9558 66.4602C74.9558 66.6815 74.9044 66.8514 74.8018 66.9749C74.694 67.1035 74.5502 67.1653 74.3654 67.1653C74.273 67.1653 74.196 67.1498 74.1242 67.1087C74.0523 67.0726 73.9907 67.0212 73.9394 66.944V67.1138H73.6417V64.9884H73.9394ZM75.4948 67.7262H75.1919L75.5461 67.0006L75.0687 65.8118H75.3972L75.6334 66.486C75.6488 66.5271 75.6642 66.5683 75.6744 66.6095C75.6847 66.6558 75.6898 66.697 75.695 66.7433C75.7104 66.697 75.736 66.6198 75.7822 66.522L75.7874 66.5066L76.1107 65.8118H76.429L75.4948 67.7262Z" fill="#2B2A29"/>
<path d="M79.8583 65.045V65.7809H79.2834V66.8462C79.2834 66.9954 79.309 67.0778 79.3655 67.1087C79.422 67.1344 79.4784 67.1498 79.5349 67.1498C79.6273 67.1498 79.7351 67.1344 79.8583 67.1035V67.9115C79.6376 67.9527 79.4168 67.9784 79.2012 67.9784C78.8522 67.9784 78.5955 67.9012 78.4312 67.7519C78.267 67.6027 78.1848 67.3608 78.1848 67.0315L78.19 66.6918V65.7809H77.7588V65.045H78.19L78.2054 64.0981L79.2834 64.0826V65.045H79.8583ZM88.2203 67.9424H87.1218V66.1309C87.1218 66.0074 87.1064 65.925 87.0705 65.8736C87.0346 65.8272 86.973 65.8015 86.8857 65.8015C86.6752 65.8015 86.5674 65.9559 86.5674 66.2647V67.9424H85.4843V66.1309C85.4843 65.8993 85.3919 65.7861 85.2174 65.7861C85.0326 65.7861 84.9402 65.8993 84.9402 66.1309V67.9424H83.8468V65.045H84.8683V65.4361C85.048 65.1376 85.3098 64.9832 85.6589 64.9832C86.0336 64.9832 86.3005 65.1376 86.4699 65.4361C86.6547 65.1376 86.9473 64.9832 87.3323 64.9832C87.5171 64.9832 87.6814 65.0244 87.82 65.1016C87.9637 65.1788 88.0612 65.2817 88.1279 65.4001C88.1895 65.5236 88.2203 65.714 88.2203 65.9713V67.9424ZM88.6464 67.119L89.5447 66.9954C89.5961 67.2064 89.7963 67.3094 90.1504 67.3094C90.4482 67.3094 90.597 67.2528 90.597 67.1395C90.597 67.0932 90.5662 67.0521 90.5098 67.0263C90.4533 66.9954 90.3147 66.9697 90.1042 66.944C89.5139 66.8616 89.1443 66.733 89.0006 66.558C88.8517 66.3882 88.7799 66.1926 88.7799 65.9816C88.7799 65.6831 88.9031 65.4413 89.1495 65.2611C89.3959 65.0759 89.7193 64.9832 90.1248 64.9832C90.8229 64.9832 91.2746 65.2406 91.4646 65.7449L90.6124 65.9044C90.5303 65.7346 90.3609 65.6523 90.1042 65.6523C89.981 65.6523 89.8886 65.6677 89.8322 65.6986C89.7706 65.7346 89.7398 65.7655 89.7398 65.7964C89.7398 65.8941 89.8322 65.9507 90.0118 65.9713C90.4892 66.0228 90.8075 66.0794 90.9769 66.136C91.1463 66.1875 91.29 66.2904 91.4081 66.4345C91.5313 66.5837 91.5878 66.7587 91.5878 66.9646C91.5878 67.2836 91.4594 67.5358 91.1925 67.7211C90.9256 67.9063 90.5662 67.999 90.0991 67.999C89.3189 67.999 88.8312 67.7056 88.6464 67.119Z" fill="#0071B9"/>
<path d="M83.2672 67.9424H82.1892C82.1635 67.8188 82.1481 67.685 82.1481 67.5358C81.9479 67.8446 81.6348 67.999 81.219 67.999C80.8802 67.999 80.6236 67.9115 80.4542 67.7365C80.2848 67.5615 80.2026 67.366 80.2026 67.1395C80.2026 66.8359 80.3412 66.5889 80.6184 66.3985C80.8956 66.2081 81.3884 66.0948 82.0917 66.0588V65.9919C82.0917 65.8633 82.0609 65.7809 82.0044 65.7346C81.9479 65.6934 81.8658 65.6728 81.7529 65.6728C81.4962 65.6728 81.3473 65.7809 81.3165 65.9919L80.2848 65.8941C80.4285 65.2869 80.9316 64.9832 81.7888 64.9832C82.0198 64.9832 82.2354 65.009 82.4305 65.0553C82.6255 65.1016 82.7795 65.1737 82.8925 65.2714C83.0054 65.3744 83.0824 65.4773 83.1235 65.5854C83.1594 65.6986 83.1799 65.9096 83.1799 66.2235V67.3763C83.1799 67.5976 83.2107 67.788 83.2672 67.9424ZM82.0917 66.5889C81.6091 66.6403 81.373 66.7947 81.373 67.052C81.373 67.227 81.4654 67.3094 81.6553 67.3094C81.7785 67.3094 81.8812 67.2733 81.9633 67.2013C82.0506 67.1344 82.0917 66.9749 82.0917 66.7278V66.5889Z" fill="#2B2A29"/>
<path fill-rule="evenodd" clip-rule="evenodd" d="M44.2896 32.8601C44.3563 33.4622 44.4795 33.5651 44.7259 34.1003C44.8388 34.3525 44.9928 34.7385 45.1468 35.1347C45.4599 35.953 45.7833 36.7249 45.8603 37.6461L46.4455 37.6307C46.0554 36.7044 45.8449 35.6133 45.4907 34.6664C45.2135 33.9305 44.6899 32.9373 44.4281 32.258L44.2896 32.8601Z" fill="#FEFEFE"/>
<path fill-rule="evenodd" clip-rule="evenodd" d="M51.4194 37.6307L52.056 37.641C51.9328 36.55 52.8157 34.3525 53.4009 33.4982C53.3855 33.1328 53.3855 33.0248 53.0826 32.7469C53.0929 33.0556 52.3691 34.5275 52.21 34.9855C51.9122 35.8501 51.7172 36.5654 51.4194 37.6307Z" fill="#FEFDFE"/>
<path fill-rule="evenodd" clip-rule="evenodd" d="M57.3947 33.1071C58.1852 31.1927 59.91 29.7466 60.9263 27.8322C58.0107 29.9987 55.1001 31.3419 52.205 29.1908L51.5068 29.9164L53.401 33.4982C53.7244 34.0592 53.8527 34.8105 53.7347 35.7883L54.1915 39.6326L55.6083 36.622L56.8762 39.8745L57.3793 35.7626C57.1483 34.7385 57.1688 33.8636 57.3947 33.1071Z" fill="#2B2A29"/>
<path d="M55.5877 30.0554C56.288 30.0554 56.8557 29.454 56.8557 28.7122C56.8557 27.9704 56.288 27.369 55.5877 27.369C54.8875 27.369 54.3198 27.9704 54.3198 28.7122C54.3198 29.454 54.8875 30.0554 55.5877 30.0554Z" fill="#2B2A29"/>
<path fill-rule="evenodd" clip-rule="evenodd" d="M39.875 39.2466L39.8545 41.1559H57.8619V39.2775L52.1999 39.2106L52.0562 37.641L45.4241 37.6513L45.1777 39.2312L39.875 39.2466Z" fill="#2B2A29"/>
<path fill-rule="evenodd" clip-rule="evenodd" d="M44.0737 33.1071C44.8642 31.1927 46.589 29.7466 47.6053 27.8321C44.6897 29.9987 42.0204 31.3471 39.1252 29.1959L37.1489 27.7138L38.4271 29.9164L40.08 33.4982C40.3983 34.0592 40.5317 34.8105 40.4137 35.7883L40.8705 39.6326L42.2873 36.622L43.5552 39.8745L44.0583 35.7626C43.8273 34.7385 43.8478 33.8636 44.0737 33.1071Z" fill="#2B2A29"/>
<path d="M42.2669 30.0554C42.9672 30.0554 43.5349 29.454 43.5349 28.7122C43.5349 27.9704 42.9672 27.369 42.2669 27.369C41.5667 27.369 40.999 27.9704 40.999 28.7122C40.999 29.454 41.5667 30.0554 42.2669 30.0554Z" fill="#2B2A29"/>
<path d="M48.9198 28.4549C49.62 28.4549 50.1877 27.8535 50.1877 27.1117C50.1877 26.3699 49.62 25.7685 48.9198 25.7685C48.2195 25.7685 47.6519 26.3699 47.6519 27.1117C47.6519 27.8535 48.2195 28.4549 48.9198 28.4549Z" fill="#2B2A29"/>
<path fill-rule="evenodd" clip-rule="evenodd" d="M61.7838 23.3806L62.2253 24.662H63.6677L62.5025 25.4494L62.9491 26.7308L61.7838 25.9383L60.6186 26.7308L61.0703 25.4494L59.8999 24.662H61.3423L61.7838 23.3806Z" fill="#2B2A29"/>
<path fill-rule="evenodd" clip-rule="evenodd" d="M55.6703 20.9464L56.1169 22.2278H57.5542L56.3889 23.0152L56.8355 24.2966L55.6703 23.5041L54.5102 24.2966L54.9568 23.0152L53.7915 22.2278H55.2288L55.6703 20.9464Z" fill="#2B2A29"/>
<path fill-rule="evenodd" clip-rule="evenodd" d="M49.2585 18.6049L50.1362 21.1368L52.9749 21.1317L50.6752 22.691L51.5582 25.223L49.2585 23.6534L46.9639 25.223L47.8468 22.691L45.542 21.1317L48.3858 21.1368L49.2585 18.6049Z" fill="#009846"/>
<path fill-rule="evenodd" clip-rule="evenodd" d="M42.0516 21.0956L42.4982 22.3822L43.9355 22.3771L42.7703 23.1696L43.2169 24.451L42.0516 23.6533L40.8915 24.451L41.3381 23.1696L40.1729 22.3771L41.6102 22.3822L42.0516 21.0956Z" fill="#2B2A29"/>
<path fill-rule="evenodd" clip-rule="evenodd" d="M37.8985 23.9467L38.34 25.2333L39.7773 25.2281L38.6121 26.0206L39.0587 27.3021L37.8985 26.5044L36.7333 27.3021L37.1799 26.0206L36.0146 25.2281L37.452 25.2333L37.8985 23.9467Z" fill="#2B2A29"/>
<path fill-rule="evenodd" clip-rule="evenodd" d="M47.236 28.5629L46.5482 28.2902C46.0143 28.0895 45.6653 27.8013 45.2597 27.5234C44.9158 27.2867 44.7156 27.0088 44.2896 26.7823C44.3819 27.9454 44.8029 28.2747 45.0852 29.2268L45.7217 30.2869C46.3172 30.6215 46.656 31.5581 46.8664 32.2219C47.2668 33.4674 46.9537 34.1312 46.9434 35.3303L47.3644 37.6461L47.6621 37.6359L48.7452 35.1502L49.7873 37.6461L50.2287 37.6359C50.3057 36.9462 50.4546 36.2927 50.547 35.6391C50.6907 34.6304 50.4597 34.3319 50.4443 33.3902C50.4341 32.2528 50.8806 30.5031 51.5069 29.9164L52.205 29.1908C52.5541 28.4754 52.7748 28.4703 53.2317 27.8425C53.5448 27.4205 53.9298 27.0036 54.207 26.5404C54.0684 26.1236 53.1547 26.9213 52.8364 27.122C52.2461 27.4925 51.8252 27.8116 51.24 28.1049C50.2801 28.5887 48.3346 29.0879 47.236 28.5629Z" fill="#009846"/>
<path d="M94 63.5011H0V62.9659H94V63.5011Z" fill="#0071B9"/>
</g>
<defs>
<clipPath id="clip0">
<rect width="94" height="68" fill="white"/>
</clipPath>
</defs>
</svg>
