<?xml version="1.0" encoding="UTF-8"?>
<!DOCTYPE svg PUBLIC "-//W3C//DTD SVG 1.1//EN" "http://www.w3.org/Graphics/SVG/1.1/DTD/svg11.dtd">
<!-- Creator: CorelDRAW X7 -->
<svg xmlns="http://www.w3.org/2000/svg" xml:space="preserve" width="158.836mm" height="112.612mm" version="1.1" style="shape-rendering:geometricPrecision; text-rendering:geometricPrecision; image-rendering:optimizeQuality; fill-rule:evenodd; clip-rule:evenodd"
viewBox="0 0 15884 11261"
 xmlns:xlink="http://www.w3.org/1999/xlink">
 <defs>
  <style type="text/css">
   <![CDATA[
    .fil2 {fill:#FEFEFE}
    .fil0 {fill:#FEFEFE}
    .fil3 {fill:#009846}
    .fil1 {fill:#FEFEFE;fill-rule:nonzero}
   ]]>
  </style>
 </defs>
 <g id="Layer_x0020_1">
  <metadata id="CorelCorpID_0Corel-Layer"/>
  <g id="_2234549668592">
   <path class="fil0" d="M7970 0c3755,0 6853,2902 7301,6650l-2178 0c-430,-2516 -2560,-4428 -5123,-4428 -2873,0 -5202,2402 -5202,5366 0,438 51,864 147,1272l-2199 0c-67,-414 -103,-839 -103,-1272 0,-4191 3294,-7588 7357,-7588zm-7240 7512l0 0c0,-144 114,-262 253,-262l1142 0c139,0 253,118 253,262l0 0c0,144 -114,262 -253,262l-1142 0c-139,0 -253,-118 -253,-262zm2367 -2936l0 0c68,-125 26,-286 -96,-356l-525 -301c-121,-70 -276,-26 -345,99l0 0c-69,125 -26,286 96,356l524 301c122,70 277,27 346,-99zm1450 -3072l0 0c121,-72 278,-29 346,96l297 538c69,125 28,286 -93,358l0 0c-121,71 -278,29 -347,-96l-296 -538c-69,-126 -28,-286 93,-358zm3286 -1307l0 0c139,0 253,118 253,262l0 1177c0,144 -114,262 -253,262l0 0c-140,0 -254,-118 -254,-262l0 -1177c0,-144 114,-262 254,-262zm3302 1307l0 0c-120,-72 -277,-29 -346,96l-296 538c-69,125 -28,286 93,358l0 0c120,71 277,29 346,-96l296 -538c69,-126 28,-286 -93,-358zm1682 3123l0 0c78,119 237,152 352,71l496 -348c115,-81 147,-244 69,-363l0 0c-77,-120 -236,-153 -352,-72l-495 349c-116,81 -147,243 -70,363z"/>
   <path class="fil1" d="M1073 10123l0 211 -666 0 0 -885 666 0 0 204 -399 0 0 129 322 0 0 196 -322 0 0 145 399 0zm1087 -674l0 885 -252 0 0 -633 -165 633 -172 0 -170 -633 0 633 -203 0 0 -885 354 0 128 470 123 -470 357 0zm448 564l0 321 -276 0 0 -885 378 0c94,0 166,11 215,32 49,22 87,55 116,99 29,45 43,95 43,150 0,85 -29,153 -88,205 -58,52 -137,78 -235,78l-153 0zm-4 -190l90 0c80,0 120,-30 120,-90 0,-56 -37,-84 -111,-84l-99 0 0 174zm1220 293l0 218 -621 0 0 -885 272 0 0 667 349 0zm483 231c-125,0 -226,-41 -305,-124 -78,-82 -118,-193 -118,-331 0,-132 38,-241 113,-327 75,-86 179,-130 312,-130 124,0 224,41 302,122 77,81 116,190 116,325 0,141 -39,253 -117,338 -79,85 -179,127 -303,127zm-1 -200c46,0 79,-20 99,-60 20,-40 30,-114 30,-220 0,-154 -41,-231 -124,-231 -90,0 -135,88 -135,263 0,165 44,248 130,248zm1241 -698l-277 511 0 374 -264 0 0 -374 -297 -511 297 0 155 291 149 -291 237 0zm735 674l0 211 -667 0 0 -885 667 0 0 204 -400 0 0 129 323 0 0 196 -323 0 0 145 400 0zm791 0l0 211 -666 0 0 -885 666 0 0 204 -400 0 0 129 323 0 0 196 -323 0 0 145 400 0zm839 224c-125,0 -226,-41 -305,-124 -78,-82 -117,-193 -117,-331 0,-132 37,-241 112,-327 75,-86 179,-130 312,-130 124,0 224,41 302,122 78,81 116,190 116,325 0,141 -39,253 -117,338 -79,85 -179,127 -303,127zm-1 -200c46,0 79,-20 99,-60 20,-40 30,-114 30,-220 0,-154 -41,-231 -124,-231 -90,0 -134,88 -134,263 0,165 43,248 129,248zm1107 -145l-289 0 0 332 -265 0 0 -885 640 0 0 211 -375 0 0 143 289 0 0 199zm886 -341l0 673 -258 0 0 -673 -183 0 0 -212 624 0 0 212 -183 0zm1028 -212l0 885 -272 0 0 -344 -206 0 0 344 -272 0 0 -885 272 0 0 326 206 0 0 -326 272 0zm838 674l0 211 -666 0 0 -885 666 0 0 204 -399 0 0 129 322 0 0 196 -322 0 0 145 399 0zm1191 -674l-276 511 0 374 -264 0 0 -374 -298 -511 297 0 156 291 148 -291 237 0zm735 674l0 211 -666 0 0 -885 666 0 0 204 -400 0 0 129 323 0 0 196 -323 0 0 145 400 0zm614 211l-49 -174 -241 0 -52 174 -221 0 274 -885 287 0 279 885 -277 0zm-241 -368l142 0 -71 -256 -71 256zm1403 368l-301 0 -130 -339 -84 0 0 339 -272 0 0 -885 462 0c102,0 181,24 238,71 56,48 84,111 84,189 0,52 -10,97 -31,136 -21,39 -63,73 -126,103l160 386zm-515 -527l116 0c34,0 62,-7 82,-21 21,-15 32,-36 32,-64 0,-57 -35,-85 -105,-85l-125 0 0 170z"/>
   <g>
    <polygon class="fil1" points="15884,9108 0,9108 0,8960 15884,8960 "/>
   </g>
   <g>
    <polygon class="fil1" points="15884,10739 0,10739 0,10591 15884,10591 "/>
   </g>
   <path class="fil1" d="M3659 7437l405 0 527 810 0 -810 410 0 0 1467 -410 0 -524 -806 0 806 -408 0 0 -1467zm1736 0l435 0 0 1467 -435 0 0 -1467zm1539 936l0 -305 672 0 0 624c-129,91 -242,154 -341,187 -99,33 -216,49 -351,49 -167,0 -303,-29 -408,-89 -105,-59 -186,-147 -244,-265 -58,-117 -87,-252 -87,-404 0,-160 32,-299 95,-418 63,-118 155,-208 277,-269 96,-47 224,-71 385,-71 155,0 271,15 348,44 77,29 141,75 191,137 51,61 89,140 115,234l-418 79c-17,-56 -46,-99 -88,-128 -41,-30 -93,-44 -157,-44 -95,0 -171,34 -228,103 -56,69 -84,178 -84,328 0,158 28,271 85,339 57,68 137,103 239,103 48,0 95,-8 139,-22 44,-15 94,-40 151,-75l0 -137 -291 0zm1016 -936l1162 0 0 313 -726 0 0 234 673 0 0 299 -673 0 0 289 747 0 0 332 -1183 0 0 -1467zm1510 1467l0 -1467 724 0c134,0 237,12 307,36 71,24 129,68 172,133 44,66 65,145 65,239 0,81 -17,151 -50,210 -33,60 -79,108 -137,144 -37,24 -88,43 -153,59 52,18 90,35 113,54 16,11 39,37 69,77 31,39 51,69 61,91l211 424 -491 0 -232 -448c-29,-58 -55,-95 -78,-113 -31,-22 -67,-34 -107,-34l-38 0 0 595 -436 0zm436 -871l184 0c19,0 58,-7 115,-20 28,-6 52,-21 70,-46 18,-25 27,-54 27,-86 0,-47 -14,-84 -43,-109 -29,-26 -82,-38 -162,-38l-191 0 0 299zm1190 -596l436 0 0 1467 -436 0 0 -1467zm1698 1225l-492 0 -71 242 -443 0 529 -1467 475 0 527 1467 -455 0 -70 -242zm-92 -318l-154 -527 -154 527 308 0zm633 -932l416 0 0 335c0,123 -24,221 -73,292 -50,72 -133,135 -252,188l-91 -177c74,-36 125,-72 152,-108 28,-36 43,-78 47,-126l-199 0 0 -404zm635 1006l412 -27c9,70 27,123 55,160 44,59 108,88 191,88 62,0 110,-15 143,-45 34,-30 50,-66 50,-106 0,-38 -15,-72 -47,-102 -32,-30 -106,-58 -222,-85 -190,-44 -325,-104 -407,-178 -81,-73 -122,-168 -122,-282 0,-76 21,-147 63,-214 41,-67 104,-119 188,-158 84,-38 199,-57 346,-57 179,0 316,35 410,105 94,70 150,180 168,333l-408 25c-11,-67 -34,-115 -68,-145 -35,-30 -83,-45 -145,-45 -50,0 -88,11 -114,33 -25,22 -38,49 -38,82 0,23 11,44 31,62 20,20 68,38 145,54 190,43 325,86 407,130 82,44 142,98 179,163 38,64 56,137 56,217 0,94 -24,181 -74,260 -50,79 -120,140 -209,181 -89,41 -202,61 -338,61 -239,0 -404,-48 -496,-144 -92,-96 -144,-218 -156,-366z"/>
   <path class="fil2" d="M9698 5581c134,-323 425,-567 597,-890 -492,366 -984,592 -1473,230l-118 121 319 604c55,95 77,221 57,386l78 649 238 -508 215 548 85 -693c-39,-173 -36,-320 2,-447z"/>
   <ellipse class="fil2" cx="9393" cy="4840" rx="214" ry="226"/>
   <polygon class="fil2" points="6738,6616 6735,6937 9778,6937 9777,6621 8821,6610 8796,6345 7676,6347 7634,6613 "/>
   <path class="fil2" d="M7447 5581c134,-323 425,-567 597,-890 -492,366 -944,593 -1433,230l-334 -250 216 372 279 603c55,95 77,221 57,386l78 649 238 -508 215 548 85 -693c-39,-173 -36,-320 2,-447z"/>
   <ellipse class="fil2" cx="7142" cy="4840" rx="214" ry="226"/>
   <ellipse class="fil2" cx="8267" cy="4570" rx="214" ry="226"/>
   <polygon class="fil2" points="10440,3941 10515,4157 10759,4157 10561,4290 10637,4506 10440,4372 10244,4506 10319,4290 10122,4157 10366,4157 "/>
   <polygon class="fil2" points="9407,3530 9482,3747 9726,3746 9528,3879 9604,4095 9407,3962 9211,4095 9286,3879 9089,3746 9333,3747 "/>
   <polygon class="fil3" points="8324,3136 8472,3563 8952,3562 8563,3825 8712,4251 8324,3987 7936,4251 8085,3825 7696,3562 8176,3563 "/>
   <polygon class="fil2" points="7106,3556 7181,3772 7424,3772 7227,3905 7303,4121 7106,3987 6909,4121 6985,3905 6788,3772 7031,3772 "/>
   <polygon class="fil2" points="6404,4037 6478,4253 6722,4253 6525,4386 6600,4602 6404,4468 6207,4602 6283,4386 6085,4253 6329,4253 "/>
   <path class="fil3" d="M7982 4814l-116 -45c-91,-34 -150,-83 -218,-130 -58,-40 -92,-86 -164,-124 15,196 87,251 134,412l108 178c101,57 158,214 194,326 67,210 14,322 13,525l71 389 50 -1 183 -419 176 420 74 -1c14,-116 39,-227 55,-336 24,-170 -15,-221 -18,-379 -2,-192 74,-487 180,-587l118 -121c58,-121 96,-122 173,-227 53,-72 118,-142 165,-220 -24,-70 -178,64 -232,98 -100,63 -171,116 -270,166 -161,81 -490,165 -676,76z"/>
   <path class="fil1" d="M13245 11121c0,12 4,22 10,29 6,8 14,11 24,11 10,0 18,-3 23,-10 6,-7 9,-16 9,-29 0,-12 -3,-22 -9,-29 -6,-7 -14,-11 -24,-11 -10,0 -18,4 -24,10 -6,7 -9,17 -9,29zm-26 115l0 -174 27 0 0 20c4,-8 9,-14 15,-18 7,-4 16,-6 25,-6 16,0 29,6 39,18 9,11 14,26 14,45 0,20 -5,36 -14,47 -10,12 -23,17 -40,17 -8,0 -15,-1 -22,-5 -6,-3 -12,-8 -17,-15l0 71 -27 0zm242 -114c0,-11 -4,-20 -11,-28 -7,-8 -16,-12 -26,-12 -10,0 -19,4 -26,12 -7,8 -10,17 -10,28 0,11 3,20 10,28 7,7 16,11 26,11 10,0 19,-4 26,-11 7,-8 11,-17 11,-28zm-102 0c0,-9 2,-17 5,-25 3,-8 8,-14 14,-20 6,-6 13,-11 21,-14 8,-3 16,-5 25,-5 9,0 17,2 25,5 8,3 15,8 21,14 6,6 11,13 14,21 4,7 5,15 5,24 0,8 -1,16 -5,24 -3,8 -7,14 -14,20 -6,7 -13,11 -21,14 -8,4 -16,5 -25,5 -9,0 -17,-1 -25,-5 -8,-3 -15,-7 -21,-13 -6,-7 -11,-13 -14,-21 -3,-8 -5,-16 -5,-24zm272 66l-27 -62c-3,-5 -4,-9 -6,-13 -1,-3 -2,-7 -3,-10 -2,5 -4,10 -5,13 -1,4 -3,7 -3,9l-28 63 -62 -126 29 0 27 57c1,3 2,6 3,10 1,4 2,9 3,14 0,-3 0,-6 1,-9 1,-3 2,-8 5,-12l29 -64 2 0 29 64c2,4 3,7 4,11 1,3 2,7 2,10 1,-4 1,-9 3,-13 1,-4 2,-7 4,-10l26 -58 28 0 -61 126zm192 -63l-95 0c1,11 4,20 10,26 6,6 14,10 24,10 9,0 16,-2 22,-6 5,-4 10,-9 15,-18l23 13c-7,12 -15,21 -25,27 -10,5 -21,8 -35,8 -19,0 -34,-5 -45,-17 -11,-12 -17,-27 -17,-46 0,-19 6,-34 18,-46 11,-12 26,-18 44,-18 19,0 34,6 45,17 10,10 16,26 16,45l0 5zm-28 -18c-1,-8 -5,-15 -10,-19 -5,-5 -13,-7 -22,-7 -9,0 -16,2 -22,7 -5,4 -9,11 -11,19l65 0zm83 -26c3,-8 7,-13 11,-17 5,-4 11,-6 18,-6 4,0 8,1 12,2 3,1 7,2 10,4l-9 23c-3,-2 -5,-3 -8,-4 -3,-1 -6,-1 -9,-1 -9,0 -15,3 -19,10 -4,8 -6,20 -6,37l0 51 -27 0 0 -118 27 0 0 19zm181 44l-95 0c1,11 4,20 10,26 6,6 14,10 24,10 8,0 16,-2 21,-6 6,-4 11,-9 16,-18l22 13c-6,12 -15,21 -24,27 -10,5 -22,8 -35,8 -19,0 -34,-5 -45,-17 -11,-12 -17,-27 -17,-46 0,-19 6,-34 18,-46 11,-12 26,-18 44,-18 19,0 34,6 45,17 10,10 16,26 16,45l0 5zm-28 -18c-2,-8 -5,-15 -10,-19 -6,-5 -13,-7 -22,-7 -9,0 -16,2 -22,7 -5,4 -9,11 -11,19l65 0zm141 14c0,-12 -3,-22 -9,-29 -6,-6 -14,-10 -24,-10 -10,0 -18,4 -24,11 -6,7 -9,17 -9,29 0,13 3,22 9,29 5,7 13,10 24,10 10,0 17,-3 24,-11 6,-7 9,-17 9,-29zm-1 -134l27 0 0 193 -27 0 0 -15c-5,7 -11,12 -17,15 -6,4 -14,5 -22,5 -17,0 -30,-5 -40,-17 -9,-11 -14,-27 -14,-47 0,-19 5,-34 15,-45 10,-12 22,-18 38,-18 10,0 18,2 25,6 7,4 12,10 15,18l0 -95zm167 134c0,12 3,22 10,29 6,8 14,11 24,11 10,0 18,-3 23,-10 6,-7 9,-16 9,-29 0,-12 -3,-22 -9,-29 -6,-7 -14,-11 -24,-11 -10,0 -18,4 -24,10 -6,7 -9,17 -9,29zm1 -134l0 95c3,-8 8,-14 15,-18 7,-4 16,-6 25,-6 16,0 29,6 38,18 10,11 15,26 15,45 0,20 -5,36 -14,47 -10,12 -23,17 -40,17 -8,0 -15,-1 -22,-5 -6,-3 -12,-8 -17,-15l0 15 -27 0 0 -193 27 0zm142 249l-28 0 33 -66 -44 -108 30 0 22 62c1,3 2,7 3,11 1,4 2,8 2,12 2,-4 4,-11 8,-20l1 -2 29 -63 29 0 -85 174z"/>
   <path class="fil1" d="M14814 10992l0 67 -53 0 0 97c0,14 3,22 8,24 4,3 10,4 15,4 8,0 18,-2 30,-4l0 73c-21,4 -41,6 -60,6 -32,0 -56,-7 -71,-20 -14,-14 -22,-36 -22,-66l0 -31 0 -83 -39 0 0 -67 39 0 2 -86 98 -1 0 87 53 0zm310 264l-98 0c-2,-11 -4,-24 -4,-37 -18,28 -46,42 -84,42 -31,0 -55,-8 -70,-24 -16,-15 -23,-34 -23,-54 0,-28 12,-50 38,-67 25,-18 70,-28 134,-31l0 -6c0,-12 -3,-20 -8,-24 -5,-3 -13,-5 -23,-5 -23,0 -37,9 -39,29l-95 -9c14,-55 59,-83 138,-83 21,0 40,2 58,6 18,5 32,11 42,20 10,9 17,19 21,29 3,10 5,29 5,57l0 106c0,20 3,37 8,51zm-107 -123c-44,4 -66,19 -66,42 0,16 9,24 26,24 11,0 21,-4 29,-10 7,-7 11,-21 11,-43l0 -13zm559 123l-100 0 0 -165c0,-11 -2,-19 -5,-23 -3,-4 -9,-7 -17,-7 -19,0 -29,14 -29,43l0 152 -99 0 0 -165c0,-21 -8,-31 -24,-31 -17,0 -25,10 -25,31l0 165 -100 0 0 -264 93 0 0 36c17,-27 41,-41 72,-41 34,0 59,14 74,41 17,-27 44,-41 79,-41 17,0 32,4 44,11 13,7 23,16 28,27 6,11 9,28 9,52l0 179zm39 -75l81 -11c5,19 24,29 56,29 27,0 40,-6 40,-16 0,-4 -2,-8 -7,-10 -6,-3 -18,-5 -37,-8 -54,-7 -88,-19 -101,-35 -13,-16 -20,-33 -20,-53 0,-26 11,-48 34,-65 22,-17 52,-25 88,-25 64,0 105,23 123,69l-78 15c-7,-16 -23,-23 -46,-23 -11,0 -20,1 -25,4 -6,3 -9,6 -9,9 0,9 9,14 25,16 44,5 73,9 88,15 16,4 29,14 40,27 11,13 16,29 16,48 0,29 -12,52 -36,69 -24,17 -57,25 -100,25 -71,0 -115,-26 -132,-80z"/>
  </g>
 </g>
</svg>
