<svg width="24" height="24" viewBox="0 0 24 24" fill="none" xmlns="http://www.w3.org/2000/svg">
<path fill-rule="evenodd" clip-rule="evenodd" d="M14.8529 11.9996L23.4098 3.44268C24.1974 2.655 24.1974 1.37794 23.4098 0.590379C22.6221 -0.197294 21.3451 -0.197294 20.5575 0.590379L12.0005 9.14739L3.44346 0.590266C2.65578 -0.197406 1.37883 -0.197406 0.591158 0.590266C-0.196402 1.37794 -0.196402 2.655 0.591158 3.44256L9.14816 11.9995L0.591158 20.5565C-0.196402 21.3441 -0.196402 22.6212 0.591158 23.4088C1.37883 24.1964 2.65578 24.1964 3.44346 23.4088L12.0005 14.8518L20.5575 23.4088C21.345 24.1964 22.6221 24.1964 23.4098 23.4088C24.1974 22.6211 24.1974 21.3441 23.4098 20.5565L14.8529 11.9996Z" fill="#C20F0F"/>
</svg>
