<svg width="24" height="24" viewBox="0 0 24 24" fill="none" xmlns="http://www.w3.org/2000/svg">
<rect width="24" height="24" fill="white" fill-opacity="0.01"/>
<mask id="mask0" mask-type="alpha" maskUnits="userSpaceOnUse" x="0" y="1" width="23" height="22">
<path fill-rule="evenodd" clip-rule="evenodd" d="M11.9999 23C5.92475 23 0.999878 18.0751 0.999878 12C0.999878 5.92487 5.92475 1 11.9999 1C18.075 1 22.9999 5.92487 22.9999 12C22.9999 18.0751 18.075 23 11.9999 23ZM12 21C16.9705 21 21 16.9706 21 12C21 7.02943 16.9705 3 12 3C7.0294 3 2.99996 7.02943 2.99996 12C2.99996 16.9706 7.0294 21 12 21ZM8.70698 16.7071L11.9999 13.4142L15.2928 16.7071L16.707 15.2929L13.4141 12L16.707 8.7071L15.2928 7.29288L11.9999 10.5858L8.70698 7.29288L7.29277 8.7071L10.5857 12L7.29277 15.2929L8.70698 16.7071Z" fill="white"/>
</mask>
<g mask="url(#mask0)">
<rect width="24" height="24" fill="#4F4F4F"/>
</g>
</svg>
