<svg width="30" height="30" viewBox="0 0 30 30" fill="none" xmlns="http://www.w3.org/2000/svg">
<rect width="30" height="30" fill="white" fill-opacity="0.01"/>
<mask id="mask0" mask-type="alpha" maskUnits="userSpaceOnUse" x="1" y="3" width="28" height="24">
<path fill-rule="evenodd" clip-rule="evenodd" d="M3.75 3.75H26.25C27.6307 3.75 28.75 4.86929 28.75 6.25V23.75C28.75 25.1307 27.6307 26.25 26.25 26.25H3.75C2.36929 26.25 1.25 25.1307 1.25 23.75V6.25C1.25 4.86929 2.36929 3.75 3.75 3.75ZM3.75 6.25V23.75H26.25V6.25H3.75ZM8.75 21.25H11.25V13.75H8.75V21.25ZM16.25 21.25H13.75V8.75H16.25V21.25ZM18.75 21.25H21.25V12.5H18.75V21.25Z" fill="white"/>
</mask>
<g mask="url(#mask0)">
<rect width="30" height="30" fill="#3C8DBC"/>
</g>
</svg>
