<svg width="17" height="16" viewBox="0 0 17 16" fill="none" xmlns="http://www.w3.org/2000/svg">
<mask id="mask0" mask-type="alpha" maskUnits="userSpaceOnUse" x="2" y="1" width="14" height="14">
<path fill-rule="evenodd" clip-rule="evenodd" d="M11.7974 1.33337C12.2327 1.33337 12.65 1.50765 12.9547 1.81566L15.0162 3.88292C15.3231 4.19071 15.4956 4.60815 15.4956 5.04343C15.4956 5.4787 15.3231 5.89615 15.0162 6.20393L7.48957 13.7492C7.02521 14.2864 6.36697 14.6164 5.61288 14.6683H2.19934V14.0016L2.2015 11.1916C2.25814 10.4886 2.58404 9.83493 3.08121 9.39565L10.6394 1.81646C10.9458 1.50726 11.3627 1.33337 11.7974 1.33337ZM5.56593 13.3366C5.92109 13.3114 6.25168 13.1456 6.51715 12.8411L11.5485 7.7957L9.04909 5.29618L3.99174 10.3664C3.72239 10.6053 3.55576 10.9395 3.52896 11.2453V13.3353L5.56593 13.3366ZM9.9907 4.35217L12.49 6.85158L14.076 5.26112C14.1336 5.20339 14.166 5.12508 14.166 5.04343C14.166 4.96178 14.1336 4.88347 14.076 4.82573L12.0127 2.75661C11.9558 2.69907 11.8783 2.66671 11.7974 2.66671C11.7166 2.66671 11.6391 2.69907 11.5822 2.75661L9.9907 4.35217Z" fill="white"/>
</mask>
<g mask="url(#mask0)">
<rect x="0.869751" width="15.9554" height="16" fill="#3C8DBC"/>
</g>
</svg>
