<svg width="17" height="16" viewBox="0 0 17 16" fill="none" xmlns="http://www.w3.org/2000/svg">
<mask id="mask0" mask-type="alpha" maskUnits="userSpaceOnUse" x="1" y="1" width="15" height="14">
<path fill-rule="evenodd" clip-rule="evenodd" d="M11.3278 1.33331C11.7643 1.33331 12.1827 1.50759 12.4883 1.81559L14.5556 3.88286C14.8633 4.19065 15.0363 4.60809 15.0363 5.04337C15.0363 5.47864 14.8633 5.89609 14.5556 6.20387L7.00789 13.7491C6.54223 14.2863 5.88215 14.6163 5.12595 14.6682H1.70288V14.0015L1.70505 11.1915C1.76184 10.4885 2.08866 9.83487 2.58721 9.39559L10.1665 1.8164C10.4738 1.5072 10.8918 1.33331 11.3278 1.33331ZM5.07887 13.3365C5.43502 13.3113 5.76654 13.1456 6.03274 12.8411L11.074 7.79979L8.5711 5.29677L3.50028 10.3664C3.23018 10.6053 3.06309 10.9395 3.03621 11.2452V13.3353L5.07887 13.3365ZM9.51402 4.35408L12.0168 6.85698L13.6127 5.26106C13.6705 5.20332 13.7029 5.12502 13.7029 5.04337C13.7029 4.96171 13.6705 4.88341 13.6127 4.82567L11.5436 2.75655C11.4865 2.69901 11.4088 2.66665 11.3278 2.66665C11.2467 2.66665 11.169 2.69901 11.1119 2.75655L9.51402 4.35408Z" fill="white"/>
</mask>
<g mask="url(#mask0)">
<rect x="0.369507" width="16" height="16" fill="white"/>
</g>
</svg>
