<svg width="12" height="13" viewBox="0 0 12 13" fill="none" xmlns="http://www.w3.org/2000/svg">
<rect y="0.818115" width="12" height="12" fill="white" fill-opacity="0.01"/>
<mask id="mask0" mask-type="alpha" maskUnits="userSpaceOnUse" x="0" y="1" width="11" height="11">
<path fill-rule="evenodd" clip-rule="evenodd" d="M5.42832 4.98707C5.68737 4.63796 5.78026 4.27004 5.48728 3.94527C4.8298 3.02528 4.38763 2.45636 4.11028 2.18238C3.583 1.66152 2.71562 1.73197 2.25896 2.18194C2.01368 2.42362 1.93064 2.50661 1.67879 2.76242C0.275969 4.166 1.13148 7.13311 3.40576 9.40962C5.67951 11.6856 8.64635 12.5416 10.0521 11.135C10.2845 10.911 10.4813 10.7141 10.6365 10.5501C11.084 10.0771 11.1519 9.24797 10.6335 8.70933C10.3677 8.43317 9.82522 8.01235 8.86653 7.32658C8.57291 7.06403 8.22476 7.12093 7.90558 7.33034C7.75205 7.43106 7.64032 7.53296 7.42933 7.74415L7.04621 8.12748C6.99575 8.17797 6.31055 7.83482 5.64542 7.16903C4.97992 6.50288 4.63701 5.81765 4.68723 5.76742L5.07062 5.38383C5.13756 5.31682 5.16956 5.28438 5.2106 5.24125C5.2961 5.15139 5.3669 5.06983 5.42832 4.98707ZM7.75293 8.83456L8.13612 8.45115C8.25224 8.33492 8.32749 8.26346 8.38871 8.21418C9.22854 8.81728 9.71492 9.19651 9.91359 9.40294C10.0329 9.52687 10.0143 9.75302 9.91064 9.86261C9.76715 10.0143 9.58071 10.2008 9.35193 10.4215C8.44291 11.3309 6.04801 10.6399 4.11262 8.70264C2.17663 6.76475 1.486 4.36948 2.38816 3.46683C2.63899 3.21208 2.71846 3.13265 2.96024 2.89441C3.05089 2.80509 3.29782 2.78503 3.4081 2.89397C3.62163 3.10491 4.01773 3.61208 4.60041 4.42375C4.57025 4.4612 4.53257 4.50352 4.48672 4.55171C4.45307 4.58708 4.42504 4.61549 4.36375 4.67685L3.98074 5.06007C3.32916 5.71159 3.88407 6.82045 4.93855 7.87596C5.9923 8.93075 7.10157 9.48627 7.75293 8.83456Z" fill="white"/>
</mask>
<g mask="url(#mask0)">
<rect y="0.818115" width="12" height="12" fill="white"/>
</g>
</svg>
